<?xml version="1.0" standalone="no"?>
<!DOCTYPE svg PUBLIC "-//W3C//DTD SVG 20010904//EN"
 "http://www.w3.org/TR/2001/REC-SVG-20010904/DTD/svg10.dtd">
<svg version="1.0" xmlns="http://www.w3.org/2000/svg"
 width="512.000000pt" height="609.000000pt" viewBox="0 0 512.000000 609.000000"
 preserveAspectRatio="xMidYMid meet">

<g transform="translate(0.000000,609.000000) scale(0.100000,-0.100000)"
fill="#000000" stroke="none">
<path d="M2459 6080 c-486 -47 -960 -400 -1145 -854 -94 -231 -121 -489 -78
-753 5 -36 4 -44 -12 -49 -95 -30 -160 -90 -189 -172 -93 -271 88 -749 332
-880 48 -25 61 -38 72 -69 30 -86 133 -286 199 -384 148 -220 300 -362 501
-466 36 -19 67 -36 69 -38 2 -2 -6 -21 -17 -43 -50 -98 -36 -186 52 -340 l53
-93 -41 -194 c-23 -107 -44 -197 -47 -201 -6 -6 -29 63 -242 731 -113 353
-124 375 -185 375 -26 0 -1214 -408 -1306 -449 -165 -73 -324 -246 -400 -434
-69 -169 -68 -156 -72 -948 -5 -801 -7 -776 61 -804 53 -22 4939 -22 4992 0
68 28 66 3 61 804 -4 792 -3 779 -72 948 -75 187 -236 362 -400 434 -92 41
-1279 449 -1306 449 -61 0 -72 -22 -185 -375 -213 -667 -236 -737 -241 -731
-4 3 -25 94 -48 201 l-41 194 53 93 c88 154 102 242 52 340 -11 22 -19 41 -17
43 2 2 39 22 83 45 271 142 507 421 660 781 41 97 45 103 91 126 141 72 269
260 331 488 34 129 39 298 9 387 -30 93 -101 161 -189 182 -20 5 -27 12 -23
21 3 8 13 65 23 127 14 85 18 167 17 333 -1 256 -12 315 -90 475 -39 80 -60
108 -133 180 -60 59 -109 97 -161 124 -42 22 -107 69 -146 105 -195 182 -410
271 -696 291 -73 5 -137 9 -143 8 -5 0 -44 -4 -86 -8z m346 -205 c174 -31 325
-109 467 -243 43 -41 103 -85 148 -108 144 -75 233 -188 282 -361 20 -68 23
-101 23 -258 0 -170 -17 -356 -36 -386 -9 -16 -14 -11 -78 81 -72 104 -128
228 -167 375 -27 103 -53 135 -109 135 -25 0 -46 -10 -82 -42 -152 -131 -315
-182 -760 -233 -297 -34 -361 -43 -473 -67 -212 -45 -407 -124 -525 -213 -33
-25 -63 -45 -67 -45 -13 0 -21 132 -16 268 6 157 27 254 86 390 150 348 504
632 882 707 92 18 319 18 425 0z m505 -1110 c64 -168 169 -331 284 -445 l56
-54 0 -96 c-1 -316 -81 -668 -215 -945 -208 -429 -529 -678 -875 -678 -228 0
-427 96 -619 299 -286 302 -470 822 -471 1330 l0 101 54 51 c113 107 259 182
451 232 128 33 232 49 543 85 378 44 550 83 687 159 33 19 64 33 69 32 5 -1
21 -33 36 -71z m-2030 -633 c0 -100 22 -316 40 -398 6 -26 8 -49 5 -52 -9 -10
-82 162 -101 238 -33 138 -19 296 28 313 24 8 28 -5 28 -101z m2617 64 c23
-43 22 -179 -1 -276 -19 -76 -92 -248 -101 -238 -3 3 -1 26 5 52 18 82 40 298
40 397 0 53 3 98 6 102 11 11 35 -6 51 -37z m-1827 -2882 l356 -1109 -40 -3
c-23 -2 -44 2 -52 10 -16 16 -755 1079 -761 1094 -2 6 39 80 92 164 96 154
108 187 85 231 -18 33 -61 46 -243 75 -97 15 -177 31 -177 35 0 11 129 532
132 534 12 8 235 82 243 81 6 -2 170 -502 365 -1112z m1480 1069 c58 -20 106
-37 108 -38 3 -2 132 -523 132 -534 0 -4 -80 -20 -177 -35 -182 -29 -225 -42
-243 -75 -23 -44 -11 -77 85 -229 52 -84 95 -155 95 -160 0 -4 -172 -255 -383
-557 l-382 -550 -43 -3 c-26 -2 -42 1 -42 8 0 12 699 2200 707 2213 3 5 12 5
22 2 9 -4 63 -23 121 -42z m-819 -62 c46 -47 41 -86 -31 -211 -70 -122 -88
-140 -140 -140 -51 0 -69 18 -140 140 -72 125 -77 164 -31 211 l29 29 142 0
142 0 29 -29z m-1495 -78 c-14 -46 -126 -517 -126 -530 0 -8 15 -29 33 -47 30
-30 40 -33 187 -56 85 -13 159 -27 163 -31 5 -4 -19 -50 -52 -104 -83 -131
-94 -153 -87 -181 4 -13 165 -252 359 -532 194 -279 361 -519 371 -534 l18
-28 -951 0 -951 0 0 653 c0 740 0 742 82 901 51 98 164 217 248 258 61 31 665
245 693 247 13 1 17 -4 13 -16z m2973 -89 c383 -133 415 -148 512 -244 90 -89
148 -195 179 -321 19 -80 20 -118 20 -736 l0 -653 -951 0 c-757 0 -949 3 -943
13 4 6 170 246 369 533 200 286 365 530 369 541 9 29 -9 68 -83 186 -35 55
-60 101 -57 104 3 4 79 18 168 33 154 26 163 29 190 59 15 17 28 38 28 45 0
13 -113 487 -126 529 -3 10 0 17 7 17 7 0 150 -48 318 -106z m-1549 -370 c0
-1 29 -138 65 -305 36 -167 65 -313 65 -324 0 -24 -222 -725 -230 -725 -7 0
-230 702 -230 726 0 10 29 156 65 323 36 167 65 304 65 305 0 1 45 1 100 1 55
0 100 0 100 -1z"/>
</g>
</svg>
